<svg xmlns="http://www.w3.org/2000/svg" viewBox="0 0 1448.72 724.36"><defs><style>.cls-1{fill:#078930;}.cls-2{fill:#fcdd09;}.cls-3{fill:#da121a;}.cls-4{fill:#00a5db;}.cls-5{stroke:#fcdd09;stroke-miterlimit:5.33;stroke-width:6.67px;}</style></defs><g id="Layer_2" data-name="Layer 2"><g id="svg898"><path id="path886" class="cls-1" d="M0,0H1448.72V724.36H0Z"/><path id="path888" class="cls-2" d="M0,241.45H1448.72V724.36H0Z"/><path id="path890" class="cls-3" d="M0,482.91H1448.72V724.36H0Z"/><g id="g968"><circle id="circle892" class="cls-4" cx="724.36" cy="362.18" r="200"/><path id="path894" class="cls-2" d="M571,312.56H688.16l26.49-82,7.06,21.86L683.22,371.58l-11.42-8.36,12-37.15H589.52L571,312.56M629.6,493.85l36.19-112-69.33-50.66h22.85l100.77,73.63-11.43,8.35-31.43-23-29.13,90.18L629.6,493.85m189.53,0L724.36,424.6,655,475.27l7.07-21.87,100.76-73.63,4.36,13.52-31.42,23L812.06,472l7.07,21.87M877.7,312.56,782.93,381.8l26.49,82-18.5-13.51L752.44,331.14h14.12l12,37.15,76.28-55.73H877.7m-153.34-112,36.2,112.05h85.71l-18.5,13.51H703.22l4.37-13.51h38.84L717.3,222.38Z"/><path id="path896" class="cls-5" d="M724.36,438v85.84m-68.75-136-81.25,26.52M681.87,306.62l-50.22-69.44m135.2,69.44,50.22-69.44m-24,150.65,81.25,26.52Z"/></g></g></g></svg>