<svg xmlns="http://www.w3.org/2000/svg" viewBox="0 0 725.37 725.36"><defs><style>.cls-1{fill:#078930;}.cls-2{fill:#fcdd09;}.cls-3{fill:#da121a;}.cls-4{fill:#00a5db;}.cls-5,.cls-6{fill:none;}.cls-5{stroke:#fcdd09;stroke-miterlimit:5.33;stroke-width:6.67px;}.cls-6{stroke:#078930;stroke-miterlimit:10;}</style></defs><g id="Layer_2" data-name="Layer 2"><g id="svg898"><path class="cls-1" d="M724.87,362.68A361.47,361.47,0,0,1,704.26,483.4C654.54,624.07,520.38,724.86,362.68,724.86S70.83,624.07,21.11,483.4a363.88,363.88,0,0,1,0-241.45C70.83,101.28,205,.5,362.68.5S654.54,101.28,704.26,242A361.53,361.53,0,0,1,724.87,362.68Z"/><path class="cls-2" d="M724.87,362.68A361.47,361.47,0,0,1,704.26,483.4C654.54,624.07,520.38,724.86,362.68,724.86S70.83,624.07,21.11,483.4a363.88,363.88,0,0,1,0-241.45H704.26A361.53,361.53,0,0,1,724.87,362.68Z"/><path class="cls-3" d="M704.26,483.4C654.54,624.07,520.38,724.86,362.68,724.86S70.83,624.07,21.11,483.4Z"/><g id="g968"><circle id="circle892" class="cls-4" cx="362.68" cy="362.68" r="161.66"/><path id="path894" class="cls-2" d="M357.68,265.09l-2.85-8.79L352,265.09l-18.56,57.47H238.74l14.95,10.93H329.9l-9.7,30,9.23,6.75L360.55,274Zm-79.91,72.49H259.3l56.05,41-26.41,81.72-2.86,8.84,12.11-8.84,2.84-2.08,23.55-72.89L350,403.85l9.24-6.75ZM436.43,460.26l-2.85-8.83-61.66-45,25.41-18.57-3.54-10.92-81.44,59.51-5.71,17.67,56-40.95,64.5,47.13,12.11,8.84Zm50.2-137.7H468.15L406.5,367.62l-9.71-30H385.38l31.1,96.3,15,10.92L410,378.54Zm-94.69,0-18.57-57.47L362.68,232,357,249.67l5,15.42,18.57,57.47h-31.4l-3.53,10.93H446.28l14.94-10.93Z"/><path id="path896" class="cls-5" d="M362.68,424v69.38m-55.57-110-65.68,21.45m86.91-87.08-38.09-52.68-2.5-3.45M397,317.77l38.09-52.68,2.5-3.45"/></g><path class="cls-6" d="M724.87,362.68A361.47,361.47,0,0,1,704.26,483.4C654.54,624.07,520.38,724.86,362.68,724.86S70.83,624.07,21.11,483.4a363.88,363.88,0,0,1,0-241.45C70.83,101.28,205,.5,362.68.5S654.54,101.28,704.26,242A361.53,361.53,0,0,1,724.87,362.68Z"/></g></g></svg>